<svg width="16" height="16" viewBox="0 0 16 16" fill="none" xmlns="http://www.w3.org/2000/svg">
<g clip-path="url(#clip0_67266_54867)">
<path d="M6.0587 5.99998C6.21543 5.55442 6.5248 5.17872 6.932 4.9394C7.3392 4.70009 7.81796 4.61261 8.28348 4.69245C8.749 4.7723 9.17124 5.01433 9.47542 5.37567C9.77959 5.737 9.94607 6.19433 9.94536 6.66665C9.94536 7.99998 7.94536 8.66665 7.94536 8.66665M7.9987 11.3333H8.00536M14.6654 7.99998C14.6654 11.6819 11.6806 14.6666 7.9987 14.6666C4.3168 14.6666 1.33203 11.6819 1.33203 7.99998C1.33203 4.31808 4.3168 1.33331 7.9987 1.33331C11.6806 1.33331 14.6654 4.31808 14.6654 7.99998Z" stroke="#98A2B3" stroke-width="1.5" stroke-linecap="round" stroke-linejoin="round"/>
</g>
<defs>
<clipPath id="clip0_67266_54867">
<rect width="16" height="16" fill="white"/>
</clipPath>
</defs>
</svg>
