<svg width="52" height="52" viewBox="0 0 52 52" fill="none" xmlns="http://www.w3.org/2000/svg">
  <g filter="url(#filter0_d_62831_2218)">
    <path
      d="M2.5 25C2.5 12.0213 13.0213 1.5 26 1.5C38.9787 1.5 49.5 12.0213 49.5 25C49.5 37.9787 38.9787 48.5 26 48.5C13.0213 48.5 2.5 37.9787 2.5 25Z"
      stroke="#EAECF0" shape-rendering="crispEdges" />
    <path
      d="M26 29V25M26 21H26.01M36 25C36 30.5228 31.5228 35 26 35C20.4772 35 16 30.5228 16 25C16 19.4772 20.4772 15 26 15C31.5228 15 36 19.4772 36 25Z"
      stroke="#344054" stroke-width="2" stroke-linecap="round" stroke-linejoin="round" />
  </g>
  <defs>
    <filter id="filter0_d_62831_2218" x="0" y="0" width="52" height="52"
      filterUnits="userSpaceOnUse" color-interpolation-filters="sRGB">
      <feFlood flood-opacity="0" result="BackgroundImageFix" />
      <feColorMatrix in="SourceAlpha" type="matrix"
        values="0 0 0 0 0 0 0 0 0 0 0 0 0 0 0 0 0 0 127 0" result="hardAlpha" />
      <feOffset dy="1" />
      <feGaussianBlur stdDeviation="1" />
      <feComposite in2="hardAlpha" operator="out" />
      <feColorMatrix type="matrix"
        values="0 0 0 0 0.0627451 0 0 0 0 0.0941176 0 0 0 0 0.156863 0 0 0 0.05 0" />
      <feBlend mode="normal" in2="BackgroundImageFix" result="effect1_dropShadow_62831_2218" />
      <feBlend mode="normal" in="SourceGraphic" in2="effect1_dropShadow_62831_2218" result="shape" />
    </filter>
  </defs>
</svg>
  