<svg width="16" height="16" viewBox="0 0 16 16" fill="none" xmlns="http://www.w3.org/2000/svg">
  <path
    d="M10.6665 2.66668C11.2865 2.66668 11.5965 2.66668 11.8508 2.73483C12.541 2.91976 13.0801 3.45885 13.265 4.14904C13.3332 4.40337 13.3332 4.71336 13.3332 5.33334V11.4667C13.3332 12.5868 13.3332 13.1468 13.1152 13.5747C12.9234 13.951 12.6175 14.2569 12.2412 14.4487C11.8133 14.6667 11.2533 14.6667 10.1332 14.6667H5.8665C4.7464 14.6667 4.18635 14.6667 3.75852 14.4487C3.3822 14.2569 3.07624 13.951 2.88449 13.5747C2.6665 13.1468 2.6665 12.5868 2.6665 11.4667V5.33334C2.6665 4.71336 2.6665 4.40337 2.73465 4.14904C2.91959 3.45885 3.45868 2.91976 4.14887 2.73483C4.4032 2.66668 4.71319 2.66668 5.33317 2.66668M5.99984 9.33334H9.99984M6.39984 4.00001H9.59984C9.9732 4.00001 10.1599 4.00001 10.3025 3.92735C10.4279 3.86343 10.5299 3.76145 10.5938 3.636C10.6665 3.4934 10.6665 3.30671 10.6665 2.93334V2.40001C10.6665 2.02664 10.6665 1.83996 10.5938 1.69735C10.5299 1.57191 10.4279 1.46992 10.3025 1.40601C10.1599 1.33334 9.97321 1.33334 9.59984 1.33334H6.39984C6.02647 1.33334 5.83978 1.33334 5.69718 1.40601C5.57174 1.46992 5.46975 1.57191 5.40583 1.69735C5.33317 1.83996 5.33317 2.02664 5.33317 2.40001V2.93334C5.33317 3.30671 5.33317 3.4934 5.40583 3.636C5.46975 3.76145 5.57174 3.86343 5.69718 3.92735C5.83978 4.00001 6.02647 4.00001 6.39984 4.00001Z"
    stroke="#667085" stroke-width="1.5" stroke-linecap="round" stroke-linejoin="round" />
</svg>
  